<?xml version="1.0" standalone="no"?>
<!DOCTYPE svg PUBLIC "-//W3C//DTD SVG 1.1//EN" "http://www.w3.org/Graphics/SVG/1.1/DTD/svg11.dtd">
<svg version="1.1" xmlns="http://www.w3.org/2000/svg" xmlns:xlink="http://www.w3.org/1999/xlink" viewBox="0 0 710 314" width="90" height="40">
  <g>
   <g stroke="null" transform="matrix(1.0920030004113175,0,0,1.0920030004113175,-3310.439222056924,-1272.0491804581632) " id="svg_4">
    <path d="m3044.939689,1290.078044c-3.866,0 -7,3.134 -7,7l0,23.145c0,3.866 3.134,7 7,7s7,-3.134 7,-7l0,-23.145c0,-3.867 -3.134,-7 -7,-7z"/>
    <path d="m3072.212689,1290.078044c-3.866,0 -7,3.134 -7,7l0,23.145c0,3.866 3.134,7 7,7s7,-3.134 7,-7l0,-23.145c0,-3.867 -3.133,-7 -7,-7z"/>
    <path d="m3099.485689,1280.285044c-3.866,0 -7,3.134 -7,7l0,42.73c0,3.866 3.134,7 7,7s7,-3.134 7,-7l0,-42.73c0,-3.866 -3.134,-7 -7,-7z"/>
    <path d="m3126.757689,1268.713044c-3.866,0 -7,3.134 -7,7l0,65.875c0,3.866 3.134,7 7,7c3.866,0 7,-3.134 7,-7l0,-65.875c0,-3.867 -3.133,-7 -7,-7z"/>
    <path d="m3154.031689,1248.238044c-3.866,0 -7,3.134 -7,7l0,106.824c0,3.866 3.134,7 7,7c3.866,0 7,-3.134 7,-7l0,-106.824c0,-3.866 -3.134,-7 -7,-7z"/>
    <path d="m3181.303689,1199.721044c-3.866,0 -7,3.134 -7,7l0,203.857c0,3.866 3.134,7 7,7c3.866,0 7,-3.134 7,-7l0,-203.857c0,-3.866 -3.134,-7 -7,-7z"/>
    <path d="m3208.576689,1217.080044c-3.866,0 -7,3.134 -7,7l0,169.14c0,3.866 3.134,7 7,7c3.866,0 7,-3.134 7,-7l0,-169.14c0,-3.867 -3.134,-7 -7,-7z"/>
    <path d="m3235.848689,1251.798044c-3.866,0 -7,3.134 -7,7l0,99.703c0,3.866 3.134,7 7,7c3.866,0 7,-3.134 7,-7l0,-99.703c0,-3.866 -3.134,-7 -7,-7z"/>
    <path d="m3263.122689,1272.717044c-3.866,0 -7,3.134 -7,7l0,57.864c0,3.866 3.134,7 7,7s7,-3.134 7,-7l0,-57.864c0,-3.866 -3.134,-7 -7,-7z"/>
    <path d="m3290.395689,1281.621044c-3.866,0 -7,3.134 -7,7l0,40.059c0,3.866 3.134,7 7,7c3.866,0 7,-3.134 7,-7l0,-40.059c0,-3.866 -3.134,-7 -7,-7z"/>
    <path d="m3317.667689,1290.078044c-3.866,0 -7,3.134 -7,7l0,23.145c0,3.866 3.134,7 7,7c3.866,0 7,-3.134 7,-7l0,-23.145c0,-3.867 -3.134,-7 -7,-7z"/>
    <path d="m3344.939689,1290.078044c-3.866,0 -7,3.134 -7,7l0,23.145c0,3.866 3.134,7 7,7s7,-3.134 7,-7l0,-23.145c0,-3.867 -3.134,-7 -7,-7z"/>
   </g>
   <text xml:space="preserve" text-anchor="start" font-family="Euphoria, sans-serif" font-size="101" id="svg_20" y="197.5" x="380.5" fill-opacity="null" stroke-opacity="null" stroke-width="0" stroke="#000" fill="#000000">RIPPLE</text>
  </g>
</svg>